<svg xmlns="http://www.w3.org/2000/svg" xmlns:svg="http://www.w3.org/2000/svg" xmlns:xlink="http://www.w3.org/1999/xlink" version="1.0" height="1750pt" width="1100.0000000000002pt" viewBox="295.00000000000045 -2.999999999999943 1108.0000000000002 1756" ><defs><style type="text/css">
            @font-face {
                font-family: 'lt_regular';
                src: url('https://app.creately.com/diagram/assets/fonts/lato/lt-regular-webfont.woff2') format('woff2'),
                    url('https://app.creately.com/diagram/assets/fonts/lato/lt-regular-webfont.woff') format('woff');
                font-weight: normal;
                font-style: normal;
            }
            @font-face {
                font-family: 'noto_regular';
                src: url('https://app.creately.com/diagram/assets/fonts/noto/noto-regular.woff') format('woff'),
                     url('https://app.creately.com/diagram/assets/fonts/noto/noto-regular.woff2') format('woff2');
                font-weight: normal;
                font-style: normal;
            }
        p {
            margin: 0;
        }
        </style></defs><defs><style>
            span{ display: inline-block; }
        </style></defs><g id="evnW40l9g4M"><g transform="translate(600 300)"><rect x="0" y="0" width="200.00000000000009" height="200" rx="2" ry="2" fill="rgb(53,98,96)" stroke="#233e3d" stroke-width="2" stroke-linecap="round" stroke-linejoin="round" stroke-dasharray="0 0"/><path d="M 0,30 L 200.00000000000009,30 M 0,96 L 200.00000000000009,96" fill="rgb(53,98,96)" stroke="#233e3d" stroke-width="2" stroke-linecap="round" stroke-linejoin="round" stroke-dasharray="0 0"/></g><g transform="translate(654.5, 305) rotate(0, 45.5, 0)" width="91" height="20"><text text-decoration="none" x="1" fill="#fdf6f6" font-weight="bold" font-size="10pt" font-family="lt_regular"  y="15">StockCollection</text><text text-decoration="none" x="90" fill="#4b4b4b" font-size="10pt" font-family="noto_regular"  y="15"></text></g><g transform="translate(610, 335) rotate(0, 0, 0)" width="123" height="56"><text text-decoration="none" x="0" fill="#fdf6f6" font-size="10pt" font-family="lt_regular"  y="14">-&#160;</text><text text-decoration="none" x="8" fill="#fdf6f6" font-size="10pt" font-family="lt_regular"  y="14">stock:&#160;</text><text text-decoration="none" x="45" fill="#fdf6f6" font-size="10pt" font-family="lt_regular"  y="14">Item</text><text text-decoration="none" x="72" fill="#fdf6f6" font-size="10pt" font-family="lt_regular"  y="14"></text><text text-decoration="none" x="0" fill="#fdf6f6" font-size="10pt" font-family="lt_regular"  y="32">-&#160;</text><text text-decoration="none" x="8" fill="#fdf6f6" font-size="10pt" font-family="lt_regular"  y="32">numberOfItems:&#160;</text><text text-decoration="none" x="106" fill="#fdf6f6" font-size="10pt" font-family="lt_regular"  y="32">Int</text><text text-decoration="none" x="122" fill="#fdf6f6" font-size="10pt" font-family="lt_regular"  y="32"></text><text text-decoration="none" x="0" fill="#fdf6f6" font-size="10pt" font-family="lt_regular"  y="51">-&#160;</text><text text-decoration="none" x="8" fill="#fdf6f6" font-size="10pt" font-family="lt_regular"  y="51">triggerQuantity:&#160;</text><text text-decoration="none" x="103" fill="#fdf6f6" font-size="10pt" font-family="lt_regular"  y="51">Int</text><text text-decoration="none" x="119" fill="#4b4b4b" font-size="10pt" font-family="noto_regular"  y="51"></text></g><g transform="translate(610, 401) rotate(0, 0, 0)" width="134" height="38"><text text-decoration="none" x="0" fill="#fdf6f6" font-size="10pt" font-family="lt_regular"  y="14">+&#160;</text><text text-decoration="none" x="11" fill="#fdf6f6" font-size="10pt" font-family="lt_regular"  y="14">reorder()</text><text text-decoration="none" x="60" fill="#fdf6f6" font-size="10pt" font-family="lt_regular"  y="14"></text><text text-decoration="none" x="0" fill="#fdf6f6" font-size="10pt" font-family="lt_regular"  y="33">+&#160;</text><text text-decoration="none" x="11" fill="#fdf6f6" font-size="10pt" font-family="lt_regular"  y="33">updateNumOfItems()</text><text text-decoration="none" x="132" fill="#4b4b4b" font-size="10pt" font-family="noto_regular"  y="33"></text></g></g><g id="915pVnYDyqr"><g transform="translate(899.9999999999999 300.00000000000006)"><rect x="0" y="0" width="200.00000000000006" height="200" rx="2" ry="2" fill="rgb(53,98,96)" stroke="#233e3d" stroke-width="2" stroke-linecap="round" stroke-linejoin="round" stroke-dasharray="0 0"/><path d="M 0,30 L 200.00000000000006,30 M 0,114 L 200.00000000000006,114" fill="rgb(53,98,96)" stroke="#233e3d" stroke-width="2" stroke-linecap="round" stroke-linejoin="round" stroke-dasharray="0 0"/></g><g transform="translate(909.9999999999999, 305.00000000000006) rotate(0, 0, 0)" width="26" height="20"><text text-decoration="none" x="0" fill="#fdf6f6" font-weight="bold" font-size="10pt" font-family="lt_regular"  y="15">Item</text><text text-decoration="none" x="27" fill="#4b4b4b" font-size="10pt" font-family="noto_regular"  y="15"></text></g><g transform="translate(909.9999999999999, 335.00000000000006) rotate(0, 0, 0)" width="175" height="74"><text text-decoration="none" x="0" fill="#fdf6f6" font-size="10pt" font-family="lt_regular"  y="14">-&#160;</text><text text-decoration="none" x="8" fill="#fdf6f6" font-size="10pt" font-family="lt_regular"  y="14">itemName:&#160;</text><text text-decoration="none" x="74" fill="#fdf6f6" font-size="10pt" font-family="lt_regular"  y="14">String</text><text text-decoration="none" x="108" fill="#fdf6f6" font-size="10pt" font-family="lt_regular"  y="14"></text><text text-decoration="none" x="0" fill="#fdf6f6" font-size="10pt" font-family="lt_regular"  y="32">-&#160;</text><text text-decoration="none" x="8" fill="#fdf6f6" font-size="10pt" font-family="lt_regular"  y="32">serialNumber&#160;</text><text text-decoration="none" x="88" fill="#fdf6f6" font-size="10pt" font-family="lt_regular"  y="32">:&#160;</text><text text-decoration="none" x="94" fill="#fdf6f6" font-size="10pt" font-family="lt_regular"  y="32">SerialNumber</text><text text-decoration="none" x="172" fill="#fdf6f6" font-size="10pt" font-family="lt_regular"  y="32"></text><text text-decoration="none" x="0" fill="#fdf6f6" font-size="10pt" font-family="lt_regular"  y="50">-&#160;</text><text text-decoration="none" x="8" fill="#fdf6f6" font-size="10pt" font-family="lt_regular"  y="50">location:&#160;</text><text text-decoration="none" x="58" fill="#fdf6f6" font-size="10pt" font-family="lt_regular"  y="50">Location</text><text text-decoration="none" x="106" fill="#fdf6f6" font-size="10pt" font-family="lt_regular"  y="50"></text><text text-decoration="none" x="0" fill="#fdf6f6" font-size="10pt" font-family="lt_regular"  y="69">-&#160;</text><text text-decoration="none" x="8" fill="#fdf6f6" font-size="10pt" font-family="lt_regular"  y="69">price:&#160;</text><text text-decoration="none" x="42" fill="#fdf6f6" font-size="10pt" font-family="lt_regular"  y="69">Double</text><text text-decoration="none" x="83" fill="#4b4b4b" font-size="10pt" font-family="noto_regular"  y="69"></text></g><g transform="translate(904.9999999999999, 419.00000000000006) rotate(0, 0, 0)" width="0" height="18"><text text-decoration="none" x="0" fill="#4b4b4b" font-size="10pt" font-family="noto_regular"  y="15"></text></g></g><g id="zPeO9BPy6dc"><g transform="translate(899.9999999999999 5.684341886080802e-14)"><rect x="0" y="0" width="200.0000000000002" height="200" rx="2" ry="2" fill="rgb(53,98,96)" stroke="#233e3d" stroke-width="2" stroke-linecap="round" stroke-linejoin="round" stroke-dasharray="0 0"/><path d="M 0,30 L 200.0000000000002,30 M 0,78 L 200.0000000000002,78" fill="rgb(53,98,96)" stroke="#233e3d" stroke-width="2" stroke-linecap="round" stroke-linejoin="round" stroke-dasharray="0 0"/></g><g transform="translate(909.9999999999999, 5.000000000000057) rotate(0, 0, 0)" width="80" height="20"><text text-decoration="none" x="0" fill="#fdf6f6" font-weight="bold" font-size="10pt" font-family="lt_regular"  y="15">SerialNumber</text><text text-decoration="none" x="78" fill="#4b4b4b" font-size="10pt" font-family="noto_regular"  y="15"></text></g><g transform="translate(909.9999999999999, 35.00000000000006) rotate(0, 0, 0)" width="135" height="38"><text text-decoration="none" x="0" fill="#fdf6f6" font-size="10pt" font-family="lt_regular"  y="14">-&#160;</text><text text-decoration="none" x="8" fill="#fdf6f6" font-size="10pt" font-family="lt_regular"  y="14">serialNumber:&#160;</text><text text-decoration="none" x="91" fill="#fdf6f6" font-size="10pt" font-family="lt_regular"  y="14">Integer</text><text text-decoration="none" x="133" fill="#fdf6f6" font-size="10pt" font-family="lt_regular"  y="14"></text><text text-decoration="none" x="0" fill="#fdf6f6" font-size="10pt" font-family="lt_regular"  y="33">-&#160;</text><text text-decoration="none" x="8" fill="#fdf6f6" font-size="10pt" font-family="lt_regular"  y="33">RFIDtag:&#160;</text><text text-decoration="none" x="61" fill="#fdf6f6" font-size="10pt" font-family="lt_regular"  y="33">Boolean</text><text text-decoration="none" x="106" fill="#4b4b4b" font-size="10pt" font-family="noto_regular"  y="33"></text></g><g transform="translate(909.9999999999999, 83.00000000000006) rotate(0, 0, 0)" width="117" height="38"><text text-decoration="none" x="0" fill="#fdf6f6" font-size="10pt" font-family="lt_regular"  y="14">+&#160;</text><text text-decoration="none" x="11" fill="#fdf6f6" font-size="10pt" font-family="lt_regular"  y="14">getSerialNumber()</text><text text-decoration="none" x="114" fill="#fdf6f6" font-size="10pt" font-family="lt_regular"  y="14"></text><text text-decoration="none" x="0" fill="#fdf6f6" font-size="10pt" font-family="lt_regular"  y="33">+&#160;</text><text text-decoration="none" x="11" fill="#fdf6f6" font-size="10pt" font-family="lt_regular"  y="33">hasRFID()</text><text text-decoration="none" x="65" fill="#4b4b4b" font-size="10pt" font-family="noto_regular"  y="33"></text></g></g><g id="ZoO4eiZ63NO"><g transform="translate(1200 5.684341886080802e-14)"><rect x="0" y="0" width="200.0000000000002" height="200" rx="2" ry="2" fill="rgb(53,98,96)" stroke="#233e3d" stroke-width="2" stroke-linecap="round" stroke-linejoin="round" stroke-dasharray="0 0"/><path d="M 0,30 L 200.0000000000002,30 M 0,78 L 200.0000000000002,78" fill="rgb(53,98,96)" stroke="#233e3d" stroke-width="2" stroke-linecap="round" stroke-linejoin="round" stroke-dasharray="0 0"/></g><g transform="translate(1210, 5.000000000000057) rotate(0, 0, 0)" width="50" height="20"><text text-decoration="none" x="0" fill="#fdf6f6" font-weight="bold" font-size="10pt" font-family="lt_regular"  y="15">Location</text><text text-decoration="none" x="48" fill="#4b4b4b" font-size="10pt" font-family="noto_regular"  y="15"></text></g><g transform="translate(1210, 35.00000000000006) rotate(0, 0, 0)" width="112" height="38"><text text-decoration="none" x="0" fill="#fdf6f6" font-size="10pt" font-family="lt_regular"  y="14">+&#160;</text><text text-decoration="none" x="11" fill="#fdf6f6" font-size="10pt" font-family="lt_regular"  y="14">shelfNumber&#160;</text><text text-decoration="none" x="89" fill="#fdf6f6" font-size="10pt" font-family="lt_regular"  y="14">:&#160;</text><text text-decoration="none" x="95" fill="#fdf6f6" font-size="10pt" font-family="lt_regular"  y="14">Int</text><text text-decoration="none" x="111" fill="#fdf6f6" font-size="10pt" font-family="lt_regular"  y="14"></text><text text-decoration="none" x="0" fill="#fdf6f6" font-size="10pt" font-family="lt_regular"  y="33">+&#160;</text><text text-decoration="none" x="11" fill="#fdf6f6" font-size="10pt" font-family="lt_regular"  y="33">binLetter&#160;</text><text text-decoration="none" x="67" fill="#fdf6f6" font-size="10pt" font-family="lt_regular"  y="33">:&#160;</text><text text-decoration="none" x="73" fill="#fdf6f6" font-size="10pt" font-family="lt_regular"  y="33">Char</text><text text-decoration="none" x="100" fill="#4b4b4b" font-size="10pt" font-family="noto_regular"  y="33"></text></g><g transform="translate(1210, 83.00000000000006) rotate(0, 0, 0)" width="86" height="20"><text text-decoration="none" x="0" fill="#fdf6f6" font-size="10pt" font-family="lt_regular"  y="15">+&#160;</text><text text-decoration="none" x="11" fill="#fdf6f6" font-size="10pt" font-family="lt_regular"  y="15">getLocation()</text><text text-decoration="none" x="84" fill="#4b4b4b" font-size="10pt" font-family="noto_regular"  y="15"></text></g></g><g id="LaYE72GYoq7"><g transform="translate(899.9999999999998 600)"><rect x="0" y="0" width="200" height="199.99999999999997" rx="2" ry="2" fill="rgb(129,40,33)" stroke="#a49898" stroke-width="2" stroke-linecap="round" stroke-linejoin="round" stroke-dasharray="0 0"/><path d="M 0,30 L 200,30 M 0,114 L 200,114" fill="rgb(129,40,33)" stroke="#a49898" stroke-width="2" stroke-linecap="round" stroke-linejoin="round" stroke-dasharray="0 0"/></g><g transform="translate(986.9999999999998, 605) rotate(0, 13, 0)" width="26" height="20"><text text-decoration="none" x="0" fill="rgb(255, 255, 255)" font-weight="bold" font-size="10pt" font-family="lt_regular"  y="15">Item</text><text text-decoration="none" x="27" fill="#4b4b4b" font-size="10pt" font-family="noto_regular"  y="15"></text></g><g transform="translate(909.9999999999998, 635) rotate(0, 0, 0)" width="175" height="74"><text text-decoration="none" x="0" fill="rgb(255, 255, 255)" font-size="10pt" font-family="lt_regular"  y="14">-&#160;</text><text text-decoration="none" x="8" fill="rgb(255, 255, 255)" font-size="10pt" font-family="lt_regular"  y="14">itemName:&#160;</text><text text-decoration="none" x="74" fill="rgb(255, 255, 255)" font-size="10pt" font-family="lt_regular"  y="14">String</text><text text-decoration="none" x="108" fill="rgb(255, 255, 255)" font-size="10pt" font-family="lt_regular"  y="14"></text><text text-decoration="none" x="0" fill="rgb(255, 255, 255)" font-size="10pt" font-family="lt_regular"  y="32">-&#160;</text><text text-decoration="none" x="8" fill="rgb(255, 255, 255)" font-size="10pt" font-family="lt_regular"  y="32">serialNumber&#160;</text><text text-decoration="none" x="88" fill="rgb(255, 255, 255)" font-size="10pt" font-family="lt_regular"  y="32">:&#160;</text><text text-decoration="none" x="94" fill="rgb(255, 255, 255)" font-size="10pt" font-family="lt_regular"  y="32">SerialNumber</text><text text-decoration="none" x="172" fill="rgb(255, 255, 255)" font-size="10pt" font-family="lt_regular"  y="32"></text><text text-decoration="none" x="0" fill="rgb(255, 255, 255)" font-size="10pt" font-family="lt_regular"  y="50">-&#160;</text><text text-decoration="none" x="8" fill="rgb(255, 255, 255)" font-size="10pt" font-family="lt_regular"  y="50">location:&#160;</text><text text-decoration="none" x="58" fill="rgb(255, 255, 255)" font-size="10pt" font-family="lt_regular"  y="50">Location</text><text text-decoration="none" x="106" fill="rgb(255, 255, 255)" font-size="10pt" font-family="lt_regular"  y="50"></text><text text-decoration="none" x="0" fill="rgb(255, 255, 255)" font-size="10pt" font-family="lt_regular"  y="69">-&#160;</text><text text-decoration="none" x="8" fill="rgb(255, 255, 255)" font-size="10pt" font-family="lt_regular"  y="69">price:&#160;</text><text text-decoration="none" x="42" fill="rgb(255, 255, 255)" font-size="10pt" font-family="lt_regular"  y="69">Double</text><text text-decoration="none" x="83" fill="#4b4b4b" font-size="10pt" font-family="noto_regular"  y="69"></text></g><g transform="translate(904.9999999999998, 719) rotate(0, 0, 0)" width="0" height="18"><text text-decoration="none" x="0" fill="#4b4b4b" font-size="10pt" font-family="noto_regular"  y="15"></text></g></g><g id="NDaskjsMqdk"><g><path d="M 1000,200 L 1000,300" fill="none" stroke="#7E7E7E" stroke-width="2" stroke-linecap="round" stroke-linejoin="round"/><path d="M 1000,300 L 1005.75,291.30434782608694 L 994.25,291.30434782608694 Z" fill="rgb(126,126,126)" stroke="#7E7E7E" stroke-width="2" stroke-linecap="round" stroke-linejoin="round"/></g></g><g id="TbUXO0UyxNL"><g><path d="M 1300,200 L 1300,250.00000000000006 L 1175,250 L 1050,250.00000000000006 L 1050,300" fill="none" stroke="#7E7E7E" stroke-width="2" stroke-linecap="round" stroke-linejoin="round"/><path d="M 1050,300 L 1055.75,291.30434782608694 L 1044.25,291.30434782608694 Z" fill="rgb(126,126,126)" stroke="#7E7E7E" stroke-width="2" stroke-linecap="round" stroke-linejoin="round"/></g></g><g id="mpAU5aIGDEA"><g><path d="M 900,400 L 860,400.00000000000006 Q 860,400.00000000000006 850,400 Q 840,400 840,400 L 800,400" fill="none" stroke="#7E7E7E" stroke-width="2" stroke-linecap="round" stroke-linejoin="round"/><path d="M 800,400 L 808.695652173913,405.75 L 808.695652173913,394.25 Z" fill="rgb(126,126,126)" stroke="#7E7E7E" stroke-width="2" stroke-linecap="round" stroke-linejoin="round"/></g></g><g id="25ZdapYewf7"><g><path d="M 1000,500 L 1000,540 Q 1000,540 1000,550 Q 999.9999999999998,559.9999999999998 999.9999999999998,560 L 1000,600" fill="none" stroke="#7E7E7E" stroke-width="2" stroke-linecap="round" stroke-linejoin="round"/></g></g><g id="V4TaXObLvGb"><g transform="translate(900.0000000000007 899.9999999999999)"><rect x="0" y="0" width="200" height="199.99999999999994" rx="2" ry="2" fill="rgb(94,101,58)" stroke="#373c20" stroke-width="2" stroke-linecap="round" stroke-linejoin="round" stroke-dasharray="0 0"/><path d="M 0,30 L 200,30 M 0,150 L 200,150" fill="rgb(94,101,58)" stroke="#373c20" stroke-width="2" stroke-linecap="round" stroke-linejoin="round" stroke-dasharray="0 0"/></g><g transform="translate(966.5000000000007, 904.9999999999999) rotate(0, 33.5, 0)" width="67" height="20"><text text-decoration="none" x="0.5" fill="#fdf6f6" font-weight="bold" font-size="10pt" font-family="lt_regular"  y="15">Transaction</text><text text-decoration="none" x="66.5" fill="#4b4b4b" font-size="10pt" font-family="noto_regular"  y="15"></text></g><g transform="translate(910.0000000000007, 934.9999999999999) rotate(0, 0, 0)" width="155" height="110"><text text-decoration="none" x="0" fill="#fdf6f6" font-size="10pt" font-family="lt_regular"  y="14">-&#160;</text><text text-decoration="none" x="8" fill="#fdf6f6" font-size="10pt" font-family="lt_regular"  y="14">customer&#160;</text><text text-decoration="none" x="65" fill="#fdf6f6" font-size="10pt" font-family="lt_regular"  y="14">:&#160;</text><text text-decoration="none" x="71" fill="#fdf6f6" font-size="10pt" font-family="lt_regular"  y="14">Cutstomer</text><text text-decoration="none" x="133" fill="#fdf6f6" font-size="10pt" font-family="lt_regular"  y="14"></text><text text-decoration="none" x="0" fill="#fdf6f6" font-size="10pt" font-family="lt_regular"  y="32">-&#160;</text><text text-decoration="none" x="8" fill="#fdf6f6" font-size="10pt" font-family="lt_regular"  y="32">salesPerson&#160;</text><text text-decoration="none" x="79" fill="#fdf6f6" font-size="10pt" font-family="lt_regular"  y="32">:&#160;</text><text text-decoration="none" x="85" fill="#fdf6f6" font-size="10pt" font-family="lt_regular"  y="32">SalesPerson</text><text text-decoration="none" x="154" fill="#fdf6f6" font-size="10pt" font-family="lt_regular"  y="32"></text><text text-decoration="none" x="0" fill="#fdf6f6" font-size="10pt" font-family="lt_regular"  y="50">-&#160;</text><text text-decoration="none" x="8" fill="#fdf6f6" font-size="10pt" font-family="lt_regular"  y="50">cashPayment&#160;</text><text text-decoration="none" x="87" fill="#fdf6f6" font-size="10pt" font-family="lt_regular"  y="50">:&#160;</text><text text-decoration="none" x="93" fill="#fdf6f6" font-size="10pt" font-family="lt_regular"  y="50">Cash</text><text text-decoration="none" x="121" fill="#fdf6f6" font-size="10pt" font-family="lt_regular"  y="50"></text><text text-decoration="none" x="0" fill="#fdf6f6" font-size="10pt" font-family="lt_regular"  y="68">-&#160;</text><text text-decoration="none" x="8" fill="#fdf6f6" font-size="10pt" font-family="lt_regular"  y="68">creditPayment&#160;</text><text text-decoration="none" x="95" fill="#fdf6f6" font-size="10pt" font-family="lt_regular"  y="68">:&#160;</text><text text-decoration="none" x="101" fill="#fdf6f6" font-size="10pt" font-family="lt_regular"  y="68">Credit</text><text text-decoration="none" x="137" fill="#fdf6f6" font-size="10pt" font-family="lt_regular"  y="68"></text><text text-decoration="none" x="0" fill="#fdf6f6" font-size="10pt" font-family="lt_regular"  y="86">-&#160;</text><text text-decoration="none" x="8" fill="#fdf6f6" font-size="10pt" font-family="lt_regular"  y="86">checkPayment&#160;</text><text text-decoration="none" x="95" fill="#fdf6f6" font-size="10pt" font-family="lt_regular"  y="86">:&#160;</text><text text-decoration="none" x="101" fill="#fdf6f6" font-size="10pt" font-family="lt_regular"  y="86">Check</text><text text-decoration="none" x="137" fill="#fdf6f6" font-size="10pt" font-family="lt_regular"  y="86"></text><text text-decoration="none" x="0" fill="#fdf6f6" font-size="10pt" font-family="lt_regular"  y="105">-&#160;</text><text text-decoration="none" x="8" fill="#fdf6f6" font-size="10pt" font-family="lt_regular"  y="105">order&#160;</text><text text-decoration="none" x="42" fill="#fdf6f6" font-size="10pt" font-family="lt_regular"  y="105">:&#160;</text><text text-decoration="none" x="48" fill="#fdf6f6" font-size="10pt" font-family="lt_regular"  y="105">Order</text><text text-decoration="none" x="82" fill="#4b4b4b" font-size="10pt" font-family="noto_regular"  y="105"></text></g><g transform="translate(910.0000000000007, 1055) rotate(0, 0, 0)" width="121" height="20"><text text-decoration="none" x="0" fill="#fdf6f6" font-size="10pt" font-family="lt_regular"  y="15">+&#160;</text><text text-decoration="none" x="11" fill="#fdf6f6" font-size="10pt" font-family="lt_regular"  y="15">calculatePayment()</text><text text-decoration="none" x="117" fill="#4b4b4b" font-size="10pt" font-family="noto_regular"  y="15"></text></g></g><g id="mHKhiOW00kq"><g><path d="M 1000,800 L 999.9999999999998,840 Q 999.9999999999998,840.0000000000002 1000,850 Q 1000.0000000000006,859.9999999999993 1000.0000000000006,860 L 1000,900" fill="none" stroke="#7E7E7E" stroke-width="2" stroke-linecap="round" stroke-linejoin="round"/><path d="M 1000,900 L 1005.75,891.304347826087 L 994.25,891.304347826087 Z" fill="rgb(126,126,126)" stroke="#7E7E7E" stroke-width="2" stroke-linecap="round" stroke-linejoin="round"/></g></g><g id="9DV4kQDepsh"><g transform="translate(300.00000000000045 600.0000000000001)"><rect x="0" y="0" width="200.00000000000014" height="200" rx="2" ry="2" fill="rgb(129,40,33)" stroke="#a49898" stroke-width="2" stroke-linecap="round" stroke-linejoin="round" stroke-dasharray="0 0"/><path d="M 0,30 L 200.00000000000014,30 M 0,78 L 200.00000000000014,78" fill="rgb(129,40,33)" stroke="#a49898" stroke-width="2" stroke-linecap="round" stroke-linejoin="round" stroke-dasharray="0 0"/></g><g transform="translate(380.0000000000005, 605.0000000000001) rotate(0, 20, 0)" width="40" height="20"><text text-decoration="none" x="0" fill="rgb(255, 255, 255)" font-weight="bold" font-size="10pt" font-family="lt_regular"  y="15">Person</text><text text-decoration="none" x="40" fill="#4b4b4b" font-size="10pt" font-family="noto_regular"  y="15"></text></g><g transform="translate(310.00000000000045, 635.0000000000001) rotate(0, 0, 0)" width="96" height="38"><text text-decoration="none" x="0" fill="rgb(255, 255, 255)" font-size="10pt" font-family="lt_regular"  y="14">-&#160;</text><text text-decoration="none" x="8" fill="rgb(255, 255, 255)" font-size="10pt" font-family="lt_regular"  y="14">name&#160;</text><text text-decoration="none" x="42" fill="rgb(255, 255, 255)" font-size="10pt" font-family="lt_regular"  y="14">:&#160;</text><text text-decoration="none" x="48" fill="rgb(255, 255, 255)" font-size="10pt" font-family="lt_regular"  y="14">String</text><text text-decoration="none" x="82" fill="rgb(255, 255, 255)" font-size="10pt" font-family="lt_regular"  y="14"></text><text text-decoration="none" x="0" fill="rgb(255, 255, 255)" font-size="10pt" font-family="lt_regular"  y="33">-&#160;</text><text text-decoration="none" x="8" fill="rgb(255, 255, 255)" font-size="10pt" font-family="lt_regular"  y="33">address&#160;</text><text text-decoration="none" x="55" fill="rgb(255, 255, 255)" font-size="10pt" font-family="lt_regular"  y="33">:&#160;</text><text text-decoration="none" x="61" fill="rgb(255, 255, 255)" font-size="10pt" font-family="lt_regular"  y="33">String</text><text text-decoration="none" x="95" fill="#4b4b4b" font-size="10pt" font-family="noto_regular"  y="33"></text></g><g transform="translate(305.00000000000045, 683.0000000000001) rotate(0, 0, 0)" width="0" height="18"><text text-decoration="none" x="0" fill="#4b4b4b" font-size="10pt" font-family="noto_regular"  y="15"></text></g></g><g id="I7MRXff1DNr"><g transform="translate(300.00000000000045 899.9999999999998)"><rect x="0" y="0" width="200.00000000000006" height="199.99999999999994" rx="2" ry="2" fill="rgb(129,40,33)" stroke="#a49898" stroke-width="2" stroke-linecap="round" stroke-linejoin="round" stroke-dasharray="0 0"/><path d="M 0,30 L 200.00000000000006,30 M 0,60 L 200.00000000000006,60" fill="rgb(129,40,33)" stroke="#a49898" stroke-width="2" stroke-linecap="round" stroke-linejoin="round" stroke-dasharray="0 0"/></g><g transform="translate(365.00000000000045, 904.9999999999998) rotate(0, 35, 0)" width="70" height="20"><text text-decoration="none" x="0.5" fill="rgb(255, 255, 255)" font-weight="bold" font-size="10pt" font-family="lt_regular"  y="15">SalesPerson</text><text text-decoration="none" x="69.5" fill="#4b4b4b" font-size="10pt" font-family="noto_regular"  y="15"></text></g><g transform="translate(310.00000000000045, 934.9999999999998) rotate(0, 0, 0)" width="115" height="20"><text text-decoration="none" x="0" fill="rgb(255, 255, 255)" font-size="10pt" font-family="lt_regular"  y="15">-&#160;</text><text text-decoration="none" x="8" fill="rgb(255, 255, 255)" font-size="10pt" font-family="lt_regular"  y="15">salesPersonID&#160;</text><text text-decoration="none" x="93" fill="rgb(255, 255, 255)" font-size="10pt" font-family="lt_regular"  y="15">:&#160;</text><text text-decoration="none" x="99" fill="rgb(255, 255, 255)" font-size="10pt" font-family="lt_regular"  y="15">Int</text><text text-decoration="none" x="115" fill="#4b4b4b" font-size="10pt" font-family="noto_regular"  y="15"></text></g><g transform="translate(305.00000000000045, 964.9999999999998) rotate(0, 0, 0)" width="109" height="20"><text text-decoration="none" x="0" fill="rgb(255, 255, 255)" font-size="10pt" font-family="lt_regular"  y="15">+&#160;</text><text text-decoration="none" x="11" fill="rgb(255, 255, 255)" font-size="10pt" font-family="lt_regular"  y="15">getSalesHistory()</text><text text-decoration="none" x="108" fill="#4b4b4b" font-size="10pt" font-family="noto_regular"  y="15"></text></g></g><g id="pCv6Vjaqttf"><g transform="translate(600 600.0000000000003)"><rect x="0" y="0" width="200.00000000000014" height="200" rx="2" ry="2" fill="rgb(129,40,33)" stroke="#a49898" stroke-width="2" stroke-linecap="round" stroke-linejoin="round"/><path d="M 0,30 L 200.00000000000014,30 M 0,60 L 200.00000000000014,60" fill="rgb(129,40,33)" stroke="#a49898" stroke-width="2" stroke-linecap="round" stroke-linejoin="round"/></g><g transform="translate(671.5, 605.0000000000003) rotate(0, 28.5, 0)" width="57" height="20"><text text-decoration="none" x="0" fill="rgb(255, 255, 255)" font-weight="bold" font-size="10pt" font-family="lt_regular"  y="15">Customer</text><text text-decoration="none" x="57" fill="#4b4b4b" font-size="10pt" font-family="noto_regular"  y="15"></text></g><g transform="translate(605, 635.0000000000003) rotate(0, 0, 0)" width="102" height="20"><text text-decoration="none" x="0" fill="rgb(255, 255, 255)" font-size="10pt" font-family="lt_regular"  y="15">-&#160;</text><text text-decoration="none" x="8" fill="rgb(255, 255, 255)" font-size="10pt" font-family="lt_regular"  y="15">customerID&#160;</text><text text-decoration="none" x="79" fill="rgb(255, 255, 255)" font-size="10pt" font-family="lt_regular"  y="15">:&#160;</text><text text-decoration="none" x="85" fill="rgb(255, 255, 255)" font-size="10pt" font-family="lt_regular"  y="15">Int</text><text text-decoration="none" x="101" fill="#4b4b4b" font-size="10pt" font-family="noto_regular"  y="15"></text></g><g transform="translate(605, 665.0000000000003) rotate(0, 0, 0)" width="134" height="20"><text text-decoration="none" x="0" fill="rgb(255, 255, 255)" font-size="10pt" font-family="lt_regular"  y="15">getTransactionHistory()</text><text text-decoration="none" x="134" fill="#4b4b4b" font-size="10pt" font-family="noto_regular"  y="15"></text></g></g><g id="Ya4VAri6yVS"><mask id="e470c" x="386" y="786" width="28" height="128" maskUnits="userSpaceOnUse"><rect x="386" y="786" width="28" height="128" fill="white" /><rect x="368.5" y="837" width="63" height="26" fill="black" /></mask><g mask="url(#e470c)"><path d="M 400,800 L 400.0000000000004,840 Q 400.0000000000004,840.0000000000005 400,850 Q 400.00000000000034,859.9999999999995 400.00000000000034,860 L 400,900" fill="none" stroke="#7E7E7E" stroke-width="2" stroke-linecap="round" stroke-linejoin="round"/></g><g transform="translate(371.5, 840)" width="57" height="20"><text text-decoration="none" x="0" fill="#4b4b4b" font-size="10pt" font-family="lt_regular"  y="15">&#x3C;&#x3C;uses&#x3E;&#x3E;</text><text text-decoration="none" x="58" fill="#4b4b4b" font-size="10pt" font-family="noto_regular"  y="15"></text></g></g><g id="mWE7yu3Rm3z"><mask id="544f0" x="486" y="686" width="128" height="28" maskUnits="userSpaceOnUse"><rect x="486" y="686" width="128" height="28" fill="white" /><rect x="518.5000000000001" y="687.0000000000001" width="63" height="26" fill="black" /></mask><g mask="url(#544f0)"><path d="M 500,700 L 540.0000000000002,700.0000000000001 Q 540.0000000000005,700.0000000000001 550,700 Q 559.9999999999998,700.0000000000002 560.0000000000002,700.0000000000002 L 600,700" fill="none" stroke="#7E7E7E" stroke-width="2" stroke-linecap="round" stroke-linejoin="round"/><path d="M 500,700 L 508.69565217391306,705.75 L 508.69565217391306,694.25 Z" fill="rgb(126,126,126)" stroke="#7E7E7E" stroke-width="2" stroke-linecap="round" stroke-linejoin="round"/></g><g transform="translate(521.5000000000001, 690.0000000000001)" width="57" height="20"><text text-decoration="none" x="0" fill="#4b4b4b" font-size="10pt" font-family="lt_regular"  y="15">&#x3C;&#x3C;uses&#x3E;&#x3E;</text><text text-decoration="none" x="58" fill="#4b4b4b" font-size="10pt" font-family="noto_regular"  y="15"></text></g></g><g id="6QPwBcnJyyo"><g><path d="M 500,1000 L 900,1000" fill="none" stroke="#7E7E7E" stroke-width="2" stroke-linecap="round" stroke-linejoin="round"/><path d="M 900,1000 L 891.304347826087,994.25 L 891.304347826087,1005.75 Z" fill="rgb(126,126,126)" stroke="#7E7E7E" stroke-width="2" stroke-linecap="round" stroke-linejoin="round"/></g></g><g id="pPzYcSnelFa"><g><path d="M 700,800 L 700,949.9999999999999 L 900,950" fill="none" stroke="#7E7E7E" stroke-width="2" stroke-linecap="round" stroke-linejoin="round"/><path d="M 900,950 L 891.304347826087,944.25 L 891.304347826087,955.75 Z" fill="rgb(126,126,126)" stroke="#7E7E7E" stroke-width="2" stroke-linecap="round" stroke-linejoin="round"/></g></g><g id="w4TLjM0Tn8b"><g transform="translate(1200.0000000000005 1200)"><rect x="0" y="0" width="200.0000000000002" height="200" rx="2" ry="2" fill="rgb(129,40,33)" stroke="#a49898" stroke-width="2" stroke-linecap="round" stroke-linejoin="round" stroke-dasharray="0 0"/><path d="M 0,30 L 200.0000000000002,30 M 0,60 L 200.0000000000002,60" fill="rgb(129,40,33)" stroke="#a49898" stroke-width="2" stroke-linecap="round" stroke-linejoin="round" stroke-dasharray="0 0"/></g><g transform="translate(1281.5000000000005, 1205) rotate(0, 18.5, 0)" width="37" height="20"><text text-decoration="none" x="0.5" fill="rgb(255, 255, 255)" font-weight="bold" font-size="10pt" font-family="lt_regular"  y="15">Check</text><text text-decoration="none" x="36.5" fill="#4b4b4b" font-size="10pt" font-family="noto_regular"  y="15"></text></g><g transform="translate(1210.0000000000005, 1235) rotate(0, 0, 0)" width="143" height="20"><text text-decoration="none" x="0" fill="rgb(255, 255, 255)" font-size="10pt" font-family="lt_regular"  y="15">-&#160;</text><text text-decoration="none" x="8" fill="rgb(255, 255, 255)" font-size="10pt" font-family="lt_regular"  y="15">checkAmtPaid&#160;</text><text text-decoration="none" x="93" fill="rgb(255, 255, 255)" font-size="10pt" font-family="lt_regular"  y="15">:&#160;</text><text text-decoration="none" x="99" fill="rgb(255, 255, 255)" font-size="10pt" font-family="lt_regular"  y="15">Double</text><text text-decoration="none" x="140" fill="#4b4b4b" font-size="10pt" font-family="noto_regular"  y="15"></text></g><g transform="translate(1205.0000000000005, 1265) rotate(0, 0, 0)" width="0" height="18"><text text-decoration="none" x="0" fill="#4b4b4b" font-size="10pt" font-family="noto_regular"  y="15"></text></g></g><g id="q6KVt0CU4zG"><g transform="translate(600.0000000000002 1200.0000000000002)"><rect x="0" y="0" width="200.00000000000009" height="199.99999999999997" rx="2" ry="2" fill="rgb(129,40,33)" stroke="#a49898" stroke-width="2" stroke-linecap="round" stroke-linejoin="round" stroke-dasharray="0 0"/><path d="M 0,30 L 200.00000000000009,30 M 0,60 L 200.00000000000009,60" fill="rgb(129,40,33)" stroke="#a49898" stroke-width="2" stroke-linecap="round" stroke-linejoin="round" stroke-dasharray="0 0"/></g><g transform="translate(685.5000000000002, 1205.0000000000002) rotate(0, 14.5, 0)" width="29" height="20"><text text-decoration="none" x="0.5" fill="rgb(255, 255, 255)" font-weight="bold" font-size="10pt" font-family="lt_regular"  y="15">Cash</text><text text-decoration="none" x="28.5" fill="#4b4b4b" font-size="10pt" font-family="noto_regular"  y="15"></text></g><g transform="translate(610.0000000000002, 1235.0000000000002) rotate(0, 0, 0)" width="135" height="20"><text text-decoration="none" x="0" fill="rgb(255, 255, 255)" font-size="10pt" font-family="lt_regular"  y="15">-&#160;</text><text text-decoration="none" x="8" fill="rgb(255, 255, 255)" font-size="10pt" font-family="lt_regular"  y="15">cashAmtPaid&#160;</text><text text-decoration="none" x="85" fill="rgb(255, 255, 255)" font-size="10pt" font-family="lt_regular"  y="15">:&#160;</text><text text-decoration="none" x="91" fill="rgb(255, 255, 255)" font-size="10pt" font-family="lt_regular"  y="15">Double</text><text text-decoration="none" x="132" fill="#4b4b4b" font-size="10pt" font-family="noto_regular"  y="15"></text></g><g transform="translate(605.0000000000002, 1265.0000000000002) rotate(0, 0, 0)" width="0" height="18"><text text-decoration="none" x="0" fill="#4b4b4b" font-size="10pt" font-family="noto_regular"  y="15"></text></g></g><g id="DvL0vIapucc"><g transform="translate(900 1200.0000000000002)"><rect x="0" y="0" width="200.00000000000006" height="199.99999999999997" rx="2" ry="2" fill="rgb(129,40,33)" stroke="#a49898" stroke-width="2" stroke-linecap="round" stroke-linejoin="round"/><path d="M 0,30 L 200.00000000000006,30 M 0,60 L 200.00000000000006,60" fill="rgb(129,40,33)" stroke="#a49898" stroke-width="2" stroke-linecap="round" stroke-linejoin="round"/></g><g transform="translate(982, 1205.0000000000002) rotate(0, 18, 0)" width="36" height="20"><text text-decoration="none" x="0" fill="rgb(255, 255, 255)" font-weight="bold" font-size="10pt" font-family="lt_regular"  y="15">Credit</text><text text-decoration="none" x="36" fill="#4b4b4b" font-size="10pt" font-family="noto_regular"  y="15"></text></g><g transform="translate(905, 1235.0000000000002) rotate(0, 0, 0)" width="142" height="20"><text text-decoration="none" x="0" fill="rgb(255, 255, 255)" font-size="10pt" font-family="lt_regular"  y="15">-&#160;</text><text text-decoration="none" x="8" fill="rgb(255, 255, 255)" font-size="10pt" font-family="lt_regular"  y="15">creditAmtPaid&#160;</text><text text-decoration="none" x="93" fill="rgb(255, 255, 255)" font-size="10pt" font-family="lt_regular"  y="15">:&#160;</text><text text-decoration="none" x="99" fill="rgb(255, 255, 255)" font-size="10pt" font-family="lt_regular"  y="15">Double</text><text text-decoration="none" x="140" fill="#4b4b4b" font-size="10pt" font-family="noto_regular"  y="15"></text></g><g transform="translate(905, 1265.0000000000002) rotate(0, 0, 0)" width="0" height="18"><text text-decoration="none" x="0" fill="#4b4b4b" font-size="10pt" font-family="noto_regular"  y="15"></text></g></g><g id="16KVXIKJo1u"><g transform="translate(900 1550)"><rect x="0" y="0" width="200.00000000000006" height="200" rx="2" ry="2" fill="rgb(53,98,96)" stroke="#233e3d" stroke-width="2" stroke-linecap="round" stroke-linejoin="round" stroke-dasharray="0 0"/><path d="M 0,30 L 200.00000000000006,30 M 0,60 L 200.00000000000006,60" fill="rgb(53,98,96)" stroke="#233e3d" stroke-width="2" stroke-linecap="round" stroke-linejoin="round" stroke-dasharray="0 0"/></g><g transform="translate(974.5, 1555) rotate(0, 25.5, 0)" width="51" height="20"><text text-decoration="none" x="0" fill="#fdf6f6" font-weight="bold" font-size="10pt" font-family="lt_regular"  y="15">Payment</text><text text-decoration="none" x="51" fill="#4b4b4b" font-size="10pt" font-family="noto_regular"  y="15"></text></g><g transform="translate(910, 1585) rotate(0, 0, 0)" width="102" height="20"><text text-decoration="none" x="0" fill="#fdf6f6" font-size="10pt" font-family="lt_regular"  y="15">-&#160;</text><text text-decoration="none" x="8" fill="#fdf6f6" font-size="10pt" font-family="lt_regular"  y="15">amountDue&#160;</text><text text-decoration="none" x="78" fill="#fdf6f6" font-size="10pt" font-family="lt_regular"  y="15">:&#160;</text><text text-decoration="none" x="84" fill="#fdf6f6" font-size="10pt" font-family="lt_regular"  y="15">Int</text><text text-decoration="none" x="100" fill="#4b4b4b" font-size="10pt" font-family="noto_regular"  y="15"></text></g><g transform="translate(910, 1615) rotate(0, 0, 0)" width="115" height="20"><text text-decoration="none" x="0" fill="#fdf6f6" font-size="10pt" font-family="lt_regular"  y="15">+calculateAmtDue()</text><text text-decoration="none" x="112" fill="#4b4b4b" font-size="10pt" font-family="noto_regular"  y="15"></text></g></g><g id="aRAcmLFhPIv"><g><path d="M 700,1200 L 700.0000000000002,1150 L 825,1150 L 950.0000000000007,1150 L 950,1100" fill="none" stroke="#7E7E7E" stroke-width="2" stroke-linecap="round" stroke-linejoin="round"/><path d="M 950,1100 L 944.25,1108.695652173913 L 955.75,1108.695652173913 Z" fill="rgb(126,126,126)" stroke="#7E7E7E" stroke-width="2" stroke-linecap="round" stroke-linejoin="round"/></g></g><g id="jLLVWGbl2au"><g><path d="M 1000,1100 L 1000.0000000000006,1140 Q 1000.0000000000006,1140.0000000000007 1000,1150 Q 1000,1160 1000,1160 L 1000,1200" fill="none" stroke="#7E7E7E" stroke-width="2" stroke-linecap="round" stroke-linejoin="round"/><path d="M 1000,1100 L 994.25,1108.695652173913 L 1005.75,1108.695652173913 Z" fill="rgb(126,126,126)" stroke="#7E7E7E" stroke-width="2" stroke-linecap="round" stroke-linejoin="round"/></g></g><g id="zB1aI3gMuFs"><g><path d="M 1300,1200 L 1300.0000000000005,1150 L 1175,1150 L 1050.0000000000007,1150 L 1050,1100" fill="none" stroke="#7E7E7E" stroke-width="2" stroke-linecap="round" stroke-linejoin="round"/><path d="M 1050,1100 L 1044.25,1108.695652173913 L 1055.75,1108.695652173913 Z" fill="rgb(126,126,126)" stroke="#7E7E7E" stroke-width="2" stroke-linecap="round" stroke-linejoin="round"/></g></g><g id="Batv6r1w5D9"><mask id="787c1" x="686" y="1386" width="278" height="178" maskUnits="userSpaceOnUse"><rect x="686" y="1386" width="278" height="178" fill="white" /><rect x="793.5000000000001" y="1462" width="63" height="26" fill="black" /></mask><g mask="url(#787c1)"><path d="M 700,1400 L 700.0000000000002,1475 L 825,1475 L 950,1475 L 950,1550" fill="none" stroke="#7E7E7E" stroke-width="2" stroke-linecap="round" stroke-linejoin="round" stroke-dasharray="3 3"/><path d="M 950,1550 L 955.75,1541.304347826087 L 944.25,1541.304347826087 Z" fill="rgb(126,126,126)" stroke="#7E7E7E" stroke-width="2" stroke-linecap="round" stroke-linejoin="round"/></g><g transform="translate(796.5000000000001, 1465)" width="57" height="20"><text text-decoration="none" x="0" fill="#4b4b4b" font-size="10pt" font-family="lt_regular"  y="15">&#x3C;&#x3C;uses&#x3E;&#x3E;</text><text text-decoration="none" x="58" fill="#4b4b4b" font-size="10pt" font-family="noto_regular"  y="15"></text></g></g><g id="p8CCOfZkUbk"><mask id="96d46" x="986" y="1386" width="28" height="178" maskUnits="userSpaceOnUse"><rect x="986" y="1386" width="28" height="178" fill="white" /><rect x="968.5" y="1462" width="63" height="26" fill="black" /></mask><g mask="url(#96d46)"><path d="M 1000,1400 L 1000,1550" fill="none" stroke="#7E7E7E" stroke-width="2" stroke-linecap="round" stroke-linejoin="round" stroke-dasharray="3 3"/><path d="M 1000,1550 L 1005.75,1541.304347826087 L 994.25,1541.304347826087 Z" fill="rgb(126,126,126)" stroke="#7E7E7E" stroke-width="2" stroke-linecap="round" stroke-linejoin="round"/></g><g transform="translate(971.5, 1465)" width="57" height="20"><text text-decoration="none" x="0" fill="#4b4b4b" font-size="10pt" font-family="lt_regular"  y="15">&#x3C;&#x3C;uses&#x3E;&#x3E;</text><text text-decoration="none" x="58" fill="#4b4b4b" font-size="10pt" font-family="noto_regular"  y="15"></text></g></g><g id="F5GYJDseLQn"><mask id="0d04f" x="1036" y="1386" width="278" height="178" maskUnits="userSpaceOnUse"><rect x="1036" y="1386" width="278" height="178" fill="white" /><rect x="1143.5000000000002" y="1462" width="63" height="26" fill="black" /></mask><g mask="url(#0d04f)"><path d="M 1050,1550 L 1050,1475 L 1175,1475 L 1300.0000000000005,1475 L 1300,1400" fill="none" stroke="#7E7E7E" stroke-width="2" stroke-linecap="round" stroke-linejoin="round" stroke-dasharray="3 3"/><path d="M 1050,1550 L 1055.75,1541.304347826087 L 1044.25,1541.304347826087 Z" fill="rgb(126,126,126)" stroke="#7E7E7E" stroke-width="2" stroke-linecap="round" stroke-linejoin="round"/></g><g transform="translate(1146.5000000000002, 1465)" width="57" height="20"><text text-decoration="none" x="0" fill="#4b4b4b" font-size="10pt" font-family="lt_regular"  y="15">&#x3C;&#x3C;uses&#x3E;&#x3E;</text><text text-decoration="none" x="58" fill="#4b4b4b" font-size="10pt" font-family="noto_regular"  y="15"></text></g></g></svg>